#N canvas 260 46 1204 939 12;
#X obj 61 665 list length;
#X obj 61 692 + 1;
#X obj 61 634 t l l, f 16;
#X msg 61 716 126 6 \$1 0 0;
#X obj 61 771 list append 231;
#X obj 61 577 cyclone/zl.change;
#X obj 61 604 route list;
#X obj 60 550 list store;
#X obj 61 814 comport 1 57600;
#X msg 1 717 devices;
#X msg 1 759 close;
#X obj 60 526 metro 25;
#X obj 60 501 tgl 19 0 empty empty empty 0 -10 0 12 #fcfcfc #000000 #000000 0 1;
#X obj 130 234 hsl 256 20 0 255 0 0 empty empty empty -2 -10 0 12 #ffffff #0400ff #000000 0 1;
#X obj 127 261 t b f;
#X obj 130 194 hsl 256 20 0 255 0 0 empty empty empty -2 -10 0 12 #ffffff #ff0400 #000000 0 1;
#X obj 130 214 hsl 256 20 0 255 0 0 empty empty empty -2 -10 0 12 #ffffff #00ff04 #000000 0 1;
#X obj 127 286 t b f;
#X obj 204 474 list length;
#X floatatom 204 500 5 0 0 0 - - - 0;
#X obj 205 528 list prepend set;
#X msg 205 578 0 255 0 0 255 0 0 255 0 0 255 0 0 255 0 0 255 0 0 255 0 0 255 0 0 255 0 0 255 0 0 255 0 0 255 0 0 255 0 0 255 0 0 255 0 0 255 0 0 255 0 0 255 0 0 255 0 0 255 0 0 255 0 0 255 0 0 255 0 0 255 0 0 255 0 0 255 0 0 255 0 0 255 0 0 255 0 0 255 0 0 255 0 0 255 0 0 255 0 0 255 0 0 255 0 0 255 0 0 255 0 0 255 0 0 255 0 0 255 0 0 255 0 0 255 0 0 255 0 0 255 0, f 133;
#X obj 205 550 list trim;
#X obj 61 743 list, f 16;
#X msg 1 738 open 1;
#X obj 127 139 line;
#X msg 127 114 0 2000;
#X msg 181 114 255 2000;
#X obj 127 31 metro 2000;
#X obj 127 57 tgl 15 0 empty empty empty 17 7 0 10 #fcfcfc #000000 #000000 0 1;
#X obj 127 11 tgl 15 0 empty empty empty 17 7 0 10 #fcfcfc #000000 #000000 0 1;
#X obj 127 78 sel 0 1;
#X obj 127 164 i;
#X obj 127 315 pack 0 0 0;
#X msg 127 345 \$1 \$2 \$3 \$1 \$2 \$3 \$1 \$2 \$3 \$1 \$2 \$3 \$1 \$2 \$3 \$1 \$2 \$3 \$1 \$2 \$3 \$1 \$2 \$3 \$1 \$2 \$3 \$1 \$2 \$3 \$1 \$2 \$3 \$1 \$2 \$3 \$1 \$2 \$3 \$1 \$2 \$3 \$1 \$2 \$3 \$1 \$2 \$3 \$1 \$2 \$3 \$1 \$2 \$3 \$1 \$2 \$3 \$1 \$2 \$3 \$1 \$2 \$3 \$1 \$2 \$3 \$1 \$2 \$3 \$1 \$2 \$3 \$1 \$2 \$3 \$1 \$2 \$3 \$1 \$2 \$3 \$1 \$2 \$3 \$1 \$2 \$3 \$1 \$2 \$3 \$1 \$2 \$3 \$1 \$2 \$3 \$1 \$2 \$3 \$1 \$2 \$3 \$1 \$2 \$3 \$1 \$2 \$3 \$1 \$2 \$3 \$1 \$2 \$3 \$1 \$2 \$3 \$1 \$2 \$3 \$1 \$2 \$3 \$1 \$2 \$3 \$1 \$2 \$3 \$1 \$2 \$3, f 100;
#X obj 498 144 random 255;
#X obj 587 143 random 255;
#X obj 701 141 random 255;
#X obj 496 275 pack 0 0 0;
#X obj 498 111 t b b b;
#X obj 500 61 metro 1000;
#X obj 500 38 tgl 15 0 empty empty empty 17 7 0 10 #fcfcfc #000000 #000000 0 1;
#X floatatom 567 36 5 0 0 0 - - - 0;
#X msg 398 455 255 0 0 255 0 0 255 0 0 255 0 0 255 0 0 255 0 0 255 0 0 255 0 0 255 0 0 255 0 0 255 0 0 0 255 0 0 255 0 0 255 0 0 255 0 0 255 0 0 255 0 0 255 0 0 255 0 0 255 0 0 255 0 0 255 0 0 0 255 0 0 255 0 0 255 0 0 255 0 0 255 0 0 255 0 0 255 0 0 255 0 0 255 0 0 255 0 0 255 255 255 0 255 255 0 255 255 0 255 255 0 255 255 0 255 255 0 255 255 0 255 255 0 255 255 0 255 255 0 255 255 0, f 88;
#X obj 503 225 line;
#X obj 588 228 line;
#X obj 704 221 line;
#X obj 500 194 pack 0 1000;
#X obj 586 197 pack 0 1000;
#X obj 701 190 pack 0 1000;
#X obj 869 73 netreceive -u -b 6666;
#X obj 869 98 oscparse;
#X obj 869 123 list trim;
#X obj 869 149 route kinect;
#X obj 869 174 route rgb;
#X obj 870 200 unpack 0 0 0;
#X floatatom 870 237 5 0 0 0 - - - 0;
#X floatatom 912 237 5 0 0 0 - - - 0;
#X floatatom 960 236 5 0 0 0 - - - 0;
#X connect 0 0 1 0;
#X connect 1 0 3 0;
#X connect 2 0 0 0;
#X connect 2 1 23 1;
#X connect 3 0 23 0;
#X connect 4 0 8 0;
#X connect 5 0 6 0;
#X connect 6 0 2 0;
#X connect 7 0 5 0;
#X connect 9 0 8 0;
#X connect 10 0 8 0;
#X connect 11 0 7 0;
#X connect 12 0 11 0;
#X connect 13 0 17 0;
#X connect 14 0 33 0;
#X connect 14 1 33 1;
#X connect 15 0 33 0;
#X connect 16 0 14 0;
#X connect 17 0 33 0;
#X connect 17 1 33 2;
#X connect 18 0 19 0;
#X connect 20 0 22 0;
#X connect 22 0 21 0;
#X connect 23 0 4 0;
#X connect 24 0 8 0;
#X connect 25 0 32 0;
#X connect 26 0 25 0;
#X connect 27 0 25 0;
#X connect 28 0 29 0;
#X connect 29 0 31 0;
#X connect 30 0 28 0;
#X connect 31 0 26 0;
#X connect 31 1 27 0;
#X connect 32 0 15 0;
#X connect 33 0 34 0;
#X connect 34 0 7 1;
#X connect 34 0 18 0;
#X connect 34 0 20 0;
#X connect 35 0 47 0;
#X connect 36 0 48 0;
#X connect 37 0 49 0;
#X connect 38 0 34 0;
#X connect 39 0 35 0;
#X connect 39 1 36 0;
#X connect 39 2 37 0;
#X connect 40 0 39 0;
#X connect 41 0 40 0;
#X connect 42 0 40 1;
#X connect 42 0 47 1;
#X connect 42 0 48 1;
#X connect 42 0 49 1;
#X connect 43 0 7 1;
#X connect 44 0 38 0;
#X connect 45 0 38 1;
#X connect 46 0 38 2;
#X connect 47 0 44 0;
#X connect 48 0 45 0;
#X connect 49 0 46 0;
#X connect 50 0 51 0;
#X connect 51 0 52 0;
#X connect 52 0 53 0;
#X connect 53 0 54 0;
#X connect 54 0 55 0;
#X connect 55 0 56 0;
#X connect 55 1 57 0;
#X connect 55 2 58 0;
