#N canvas 401 113 1456 938 12;
#X msg 138 123 ports;
#X msg 218 121 devices;
#X msg 64 108 close;
#X msg 74 141 open 1;
#X floatatom 320 26 5 0 0 0 - - - 0;
#X obj 320 84 >> 8;
#X obj 377 85 & 255;
#X msg 241 176 1 244;
#X obj 320 53 t f f;
#X obj 320 111 & 255;
#X obj 352 170 pack;
#X msg 383 22 499;
#X msg 427 24 500;
#X msg 475 22 501;
#X msg 512 23 502;
#X msg 398 214 100;
#X msg 445 211 101;
#X msg 409 266 164;
#X msg 451 266 64;
#X msg 544 214 0;
#X msg 606 211 1;
#X floatatom 687 214 5 0 0 0 - - - 0;
#X msg 313 393 1 100 100 0;
#X msg 187 406 0 100 0 0;
#X msg 463 354 1 0 0 0;
#X msg 608 308 0 0 100 100 \, 1 100 0 100 \, 2 0 100 100 \, 3 100 0 100 \, 4 0 100 100 \, 5 100 0 100 \, 6 0 100 100 \, 7 100 0 100 \, 8 0 100 100 \, 9 100 0 100 \, 10 0 100 100 \, 11 100 0 100 \, 12 0 100 100 \, 13 100 0 100 \, 14 0 100 100 \, 15 100 0 100 \, 16 0 100 100 \, 17 100 0 100 \, 18 0 100 100 \, 19 100 0 100 \, 20 0 100 100 \, 21 100 0 100 \, 22 0 100 100 \, 23 100 0 100 \,;
#X msg 753 287 0 100 0 0 1 0 100 0 2 0 0 100 3 0 100 100 4 100 100 0 5 100 0 100 6 100 50 0 7 50 100 0 8 0 100 50;
#X msg 886 240 0 0 0 0 1 0 0 0 2 0 0 0 3 0 0 0 4 0 0 0 5 0 0 0 6 0 0 0 7 0 0 0 8 0 0 0;
#X msg 796 61;
#X msg 889 80 255 0 0 0 255 0 0 0 255 0 255 255 255 0 255 255 255 0 255 100 0 100 255 0 0 100 255 0 255 100;
#X msg 994 131;
#X obj 132 503 array get leds;
#X obj 135 465 bng 19 250 50 0 empty empty empty 0 -10 0 12 #fcfcfc #000000 #000000;
#X obj 139 603 array set leds;
#X floatatom 186 573 5 0 0 0 - - - 0;
#X floatatom 138 571 5 0 0 0 - - - 0;
#X obj 52 406 metro 100;
#X obj 66 336 tgl 19 0 empty empty empty 0 -10 0 12 #fcfcfc #000000 #000000 0 1;
#X msg 311 496 \; leds const 0;
#X msg 359 572 \; leds const \$1;
#X floatatom 422 534 5 0 0 0 - - - 0;
#X obj 1240 280 until;
#X obj 729 696 array get gradiente;
#X obj 1252 334 + 1;
#X obj 1218 336 f;
#X obj 872 744 print;
#X msg 1317 223 0;
#X obj 1290 199 t b b;
#X obj 1342 173 bng 19 250 50 0 empty empty empty 0 -10 0 12 #fcfcfc #000000 #000000;
#X msg 986 656 ----------;
#X obj 1271 371 * 3;
#X floatatom 1116 493 5 0 0 0 - - - 0;
#X floatatom 1102 616 5 0 0 0 - - - 0;
#X floatatom 1217 616 5 0 0 0 - - - 0;
#X obj 1103 667 * 255;
#X floatatom 1098 710 5 0 0 0 - - - 0;
#X floatatom 1157 737 5 0 0 0 - - - 0;
#X floatatom 1206 738 5 0 0 0 - - - 0;
#X obj 1148 518 t f f f;
#X obj 1110 734 i;
#X obj 771 637 bng 19 250 50 0 empty empty empty 0 -10 0 12 #fcfcfc #000000 #000000;
#X obj 1120 331 until;
#X msg 1127 282 192;
#X msg 734 785 \; gradiente const 0;
#X obj 1228 667 * 255;
#X obj 1316 650 expr 255-$f1;
#X obj 1313 682 i;
#X obj 271 630 array define leds 384;
#X obj 161 277 comport 1 115200;
#X obj 1044 472 array define gradiente 384;
#X obj 619 478 array define ledX3 66;
#X obj 573 747 print;
#X obj 554 652 bng 19 250 50 0 empty empty empty 0 -10 0 12 #fcfcfc #000000 #000000;
#X obj 560 696 array get ledX3;
#X msg 402 760 \; ledX3 const \$1;
#X floatatom 406 722 5 0 0 0 - - - 0;
#X msg 447 827 \; ledX3 const 0;
#X msg 1244 227 66;
#X obj 1220 368 % 66;
#X obj 1102 641 / 66;
#X obj 1228 641 / 66;
#X obj 1147 845 array set ledX3;
#X obj 197 794 array set ledX3;
#X floatatom 255 757 5 0 0 0 - - - 0;
#X floatatom 207 694 5 0 0 0 - - - 0;
#X obj 216 723 t f f;
#X floatatom 213 754 5 0 0 0 - - - 0;
#X floatatom 144 760 5 0 0 0 - - - 0;
#X floatatom 77 693 5 0 0 0 - - - 0;
#X obj 86 722 t f f;
#X obj 67 823 array set ledX3_;
#X obj 653 524 array define ledX3_ 66;
#X obj 55 756 expr 16-$f1;
#X msg 673 607 symbol ledX3_;
#X obj 436 693 array get ledX3;
#X obj 376 666 spigot;
#X msg 662 578 symbol ledX3;
#X connect 0 0 68 0;
#X connect 1 0 68 0;
#X connect 2 0 68 0;
#X connect 3 0 68 0;
#X connect 4 0 8 0;
#X connect 5 0 9 0;
#X connect 6 0 10 1;
#X connect 7 0 68 0;
#X connect 8 0 5 0;
#X connect 8 1 6 0;
#X connect 9 0 10 0;
#X connect 10 0 68 0;
#X connect 11 0 4 0;
#X connect 12 0 4 0;
#X connect 13 0 4 0;
#X connect 14 0 4 0;
#X connect 15 0 68 0;
#X connect 16 0 68 0;
#X connect 17 0 68 0;
#X connect 18 0 68 0;
#X connect 19 0 68 0;
#X connect 20 0 68 0;
#X connect 21 0 68 0;
#X connect 22 0 68 0;
#X connect 23 0 68 0;
#X connect 24 0 68 0;
#X connect 25 0 68 0;
#X connect 26 0 68 0;
#X connect 27 0 68 0;
#X connect 29 0 68 0;
#X connect 31 0 68 0;
#X connect 32 0 31 0;
#X connect 34 0 33 1;
#X connect 35 0 33 0;
#X connect 36 0 73 0;
#X connect 37 0 36 0;
#X connect 40 0 39 0;
#X connect 41 0 44 0;
#X connect 42 0 45 0;
#X connect 42 0 68 0;
#X connect 43 0 44 1;
#X connect 44 0 43 0;
#X connect 44 0 78 0;
#X connect 46 0 44 1;
#X connect 47 0 77 0;
#X connect 47 1 46 0;
#X connect 48 0 47 0;
#X connect 49 0 45 0;
#X connect 51 0 58 0;
#X connect 52 0 79 0;
#X connect 53 0 80 0;
#X connect 54 0 55 0;
#X connect 55 0 59 0;
#X connect 56 0 81 0;
#X connect 57 0 81 0;
#X connect 58 0 52 0;
#X connect 58 2 81 1;
#X connect 59 0 81 0;
#X connect 60 0 42 0;
#X connect 62 0 61 0;
#X connect 64 0 65 0;
#X connect 65 0 66 0;
#X connect 66 0 57 0;
#X connect 72 0 73 0;
#X connect 73 0 68 0;
#X connect 75 0 74 0;
#X connect 77 0 41 0;
#X connect 78 0 51 0;
#X connect 79 0 54 0;
#X connect 80 0 64 0;
#X connect 83 0 82 1;
#X connect 84 0 85 0;
#X connect 85 0 86 0;
#X connect 85 1 83 0;
#X connect 86 0 82 0;
#X connect 87 0 90 1;
#X connect 88 0 89 0;
#X connect 89 0 92 0;
#X connect 89 1 87 0;
#X connect 92 0 90 0;
#X connect 93 0 73 2;
#X connect 96 0 73 2;
