#N canvas 233 516 667 433 12;
#X msg 138 123 ports;
#X msg 218 121 devices;
#X obj 157 245 comport 1 9600;
#X msg 64 108 close;
#X msg 74 141 open 1;
#X floatatom 320 26 5 0 0 0 - - - 0;
#X obj 320 84 >> 8;
#X obj 377 85 & 255;
#X msg 241 176 1 244;
#X obj 320 53 t f f;
#X obj 320 111 & 255;
#X obj 352 170 pack;
#X msg 383 22 499;
#X msg 427 24 500;
#X msg 475 22 501;
#X msg 512 23 502;
#X connect 0 0 2 0;
#X connect 1 0 2 0;
#X connect 3 0 2 0;
#X connect 4 0 2 0;
#X connect 5 0 9 0;
#X connect 6 0 10 0;
#X connect 7 0 11 1;
#X connect 8 0 2 0;
#X connect 9 0 6 0;
#X connect 9 1 7 0;
#X connect 10 0 11 0;
#X connect 11 0 2 0;
#X connect 12 0 5 0;
#X connect 13 0 5 0;
#X connect 14 0 5 0;
#X connect 15 0 5 0;
