#N canvas 701 172 600 524 12;
#X msg 159 378 devices;
#X obj 239 399 list store;
#X obj 381 38 vsl 19 256 0 255 0 0 empty empty empty 0 -9 0 12 #fcfcfc #000000 #000000 0 1;
#X floatatom 381 305 5 0 0 0 - - - 0;
#X obj 453 38 vsl 19 256 0 255 0 0 empty empty empty 0 -9 0 12 #fcfcfc #000000 #000000 0 1;
#X floatatom 453 305 5 0 0 0 - - - 0;
#X obj 306 38 vsl 19 256 0 255 0 0 empty empty empty 0 -9 0 12 #fcfcfc #000000 #000000 0 1;
#X floatatom 306 305 5 0 0 0 - - - 0;
#X obj 239 348 tgl 19 0 empty empty empty 0 -10 0 12 #fcfcfc #000000 #000000 0 1;
#X msg 117 323 open \$1;
#X obj 159 356 loadbang;
#X obj 117 138 vradio 19 1 0 8 empty empty empty 0 -10 0 12 #fcfcfc #000000 #000000 0;
#X floatatom 117 298 5 0 0 0 - - - 0;
#X text 136 139 0;
#X text 136 158 1;
#X text 136 177 2;
#X text 136 196 3;
#X text 136 216 4;
#X text 136 235 5;
#X text 136 254 6;
#X text 136 273 7;
#X obj 159 449 comport 7 9600;
#X msg 159 399 close;
#N canvas 179 204 450 300 pak 0;
#X obj 144 192 pack 0 0 0;
#X obj 177 137 t b f;
#X obj 221 137 t b f;
#X obj 116 82 inlet;
#X obj 175 83 inlet;
#X obj 221 82 inlet;
#X obj 144 258 outlet;
#X connect 0 0 6 0;
#X connect 1 0 0 0;
#X connect 1 1 0 1;
#X connect 2 0 0 0;
#X connect 2 1 0 2;
#X connect 3 0 0 0;
#X connect 4 0 1 0;
#X connect 5 0 2 0;
#X restore 306 340 pd pak;
#X floatatom 260 288 5 0 0 0 - - - 0;
#X obj 239 374 metro 400;
#X connect 0 0 21 0;
#X connect 1 0 21 0;
#X connect 2 0 3 0;
#X connect 3 0 23 1;
#X connect 4 0 5 0;
#X connect 5 0 23 2;
#X connect 6 0 7 0;
#X connect 7 0 23 0;
#X connect 8 0 25 0;
#X connect 9 0 21 0;
#X connect 10 0 0 0;
#X connect 11 0 12 0;
#X connect 12 0 9 0;
#X connect 22 0 21 0;
#X connect 23 0 1 1;
#X connect 24 0 25 1;
#X connect 25 0 1 0;
